<?xml version="1.0" encoding="UTF-8" standalone="no"?>
<!DOCTYPE svg PUBLIC "-//W3C//DTD SVG 1.1//EN" "http://www.w3.org/Graphics/SVG/1.1/DTD/svg11.dtd">
<svg width="100%" height="100%" viewBox="0 0 386 56" version="1.1" xmlns="http://www.w3.org/2000/svg" xmlns:xlink="http://www.w3.org/1999/xlink" xml:space="preserve" xmlns:serif="http://www.serif.com/" style="fill-rule:evenodd;clip-rule:evenodd;stroke-linecap:round;stroke-linejoin:round;stroke-miterlimit:1.5;">
    <g transform="matrix(1,0,0,1,-1178.74,-811.375)">
        <g id="EskerDocsDark" transform="matrix(0.433582,0,0,0.135151,638.83,811.375)">
            <rect x="1245.24" y="0" width="888.77" height="414.351" style="fill:none;"/>
            <g transform="matrix(1.01398,0,0,1.83394,1183.89,-23.8212)">
                <path d="M132.232,71.318L179.941,166.736L84.523,166.736L132.232,71.318Z" style="fill:none;stroke:rgb(202,202,202);stroke-width:13.4px;"/>
            </g>
            <g transform="matrix(0.572949,0,0,1.87172,1310.43,18.9615)">
                <path d="M13.153,17.532L13.153,187.164" style="fill:none;stroke:rgb(202,202,202);stroke-width:19.08px;"/>
            </g>
            <g transform="matrix(6.74727,0,0,21.6461,-3736.79,-10128.1)">
                <g transform="matrix(12,0,0,12,760.518,481.691)">
                    <path d="M0.175,-0L0.175,-0.7L0.788,-0.7L0.788,-0.568L0.322,-0.568L0.322,-0.132L0.795,-0.132L0.795,-0L0.175,-0ZM0.255,-0.293L0.255,-0.421L0.74,-0.421L0.74,-0.293L0.255,-0.293Z" style="fill:rgb(202,202,202);fill-rule:nonzero;"/>
                </g>
                <g transform="matrix(12,0,0,12,771.846,481.691)">
                    <path d="M0.484,0.01C0.43,0.01 0.38,0.005 0.334,-0.005C0.288,-0.015 0.247,-0.03 0.21,-0.048C0.172,-0.066 0.138,-0.088 0.108,-0.114L0.182,-0.235C0.234,-0.194 0.285,-0.165 0.337,-0.146C0.389,-0.127 0.441,-0.118 0.493,-0.118C0.519,-0.118 0.546,-0.121 0.572,-0.127C0.599,-0.132 0.621,-0.141 0.639,-0.154C0.656,-0.167 0.665,-0.184 0.665,-0.206C0.665,-0.219 0.661,-0.23 0.652,-0.239C0.643,-0.247 0.632,-0.254 0.616,-0.259C0.601,-0.265 0.584,-0.269 0.565,-0.272C0.547,-0.276 0.527,-0.278 0.507,-0.28C0.487,-0.282 0.468,-0.284 0.449,-0.285C0.403,-0.29 0.362,-0.298 0.324,-0.309C0.287,-0.319 0.255,-0.333 0.228,-0.35C0.202,-0.367 0.181,-0.387 0.167,-0.411C0.153,-0.436 0.146,-0.463 0.146,-0.495C0.146,-0.53 0.154,-0.561 0.171,-0.588C0.188,-0.615 0.212,-0.638 0.243,-0.657C0.273,-0.675 0.309,-0.69 0.349,-0.699C0.39,-0.709 0.433,-0.714 0.48,-0.714C0.529,-0.714 0.573,-0.709 0.613,-0.7C0.653,-0.691 0.688,-0.679 0.719,-0.662C0.75,-0.646 0.776,-0.627 0.796,-0.606L0.717,-0.501C0.697,-0.519 0.674,-0.534 0.648,-0.547C0.621,-0.559 0.593,-0.569 0.564,-0.575C0.535,-0.582 0.505,-0.585 0.475,-0.585C0.443,-0.585 0.414,-0.582 0.389,-0.576C0.363,-0.571 0.343,-0.562 0.329,-0.551C0.314,-0.54 0.307,-0.525 0.307,-0.508C0.307,-0.493 0.312,-0.48 0.324,-0.47C0.335,-0.46 0.35,-0.452 0.369,-0.446C0.387,-0.44 0.409,-0.435 0.432,-0.431C0.456,-0.428 0.48,-0.424 0.505,-0.421C0.545,-0.417 0.584,-0.412 0.622,-0.405C0.661,-0.398 0.695,-0.388 0.726,-0.375C0.756,-0.362 0.78,-0.343 0.799,-0.319C0.817,-0.294 0.826,-0.262 0.826,-0.222C0.826,-0.174 0.811,-0.133 0.782,-0.098C0.753,-0.063 0.713,-0.037 0.661,-0.018C0.61,0.001 0.551,0.01 0.484,0.01Z" style="fill:rgb(202,202,202);fill-rule:nonzero;"/>
                </g>
                <g transform="matrix(12,0,0,12,783.174,481.691)">
                    <path d="M0.275,-0.169L0.249,-0.307L0.752,-0.7L0.952,-0.7L0.275,-0.169ZM0.175,-0L0.175,-0.7L0.325,-0.7L0.325,-0L0.175,-0ZM0.76,-0L0.459,-0.369L0.549,-0.475L0.947,-0L0.76,-0Z" style="fill:rgb(202,202,202);fill-rule:nonzero;"/>
                </g>
                <g transform="matrix(12,0,0,12,796.086,481.691)">
                    <path d="M0.175,-0L0.175,-0.7L0.788,-0.7L0.788,-0.568L0.322,-0.568L0.322,-0.132L0.795,-0.132L0.795,-0L0.175,-0ZM0.255,-0.293L0.255,-0.421L0.74,-0.421L0.74,-0.293L0.255,-0.293Z" style="fill:rgb(202,202,202);fill-rule:nonzero;"/>
                </g>
                <g transform="matrix(12,0,0,12,807.414,481.691)">
                    <path d="M0.175,-0L0.175,-0.7L0.582,-0.7C0.633,-0.7 0.678,-0.691 0.715,-0.672C0.753,-0.654 0.782,-0.628 0.803,-0.595C0.824,-0.561 0.834,-0.523 0.834,-0.479C0.834,-0.435 0.823,-0.396 0.8,-0.36C0.776,-0.325 0.745,-0.297 0.706,-0.277C0.667,-0.257 0.624,-0.246 0.576,-0.246L0.32,-0.246L0.32,-0L0.175,-0ZM0.698,-0L0.46,-0.316L0.618,-0.341L0.876,0.001L0.698,-0ZM0.32,-0.368L0.559,-0.368C0.581,-0.368 0.601,-0.373 0.619,-0.382C0.638,-0.391 0.652,-0.403 0.664,-0.419C0.675,-0.435 0.68,-0.453 0.68,-0.473C0.68,-0.493 0.675,-0.51 0.664,-0.524C0.652,-0.539 0.638,-0.55 0.619,-0.558C0.6,-0.566 0.58,-0.57 0.558,-0.57L0.32,-0.57L0.32,-0.368Z" style="fill:rgb(202,202,202);fill-rule:nonzero;"/>
                </g>
                <g transform="matrix(12,0,0,12,819.606,481.691)">
                    <path d="M0.175,-0L0.175,-0.7L0.542,-0.7C0.608,-0.7 0.665,-0.691 0.716,-0.672C0.766,-0.653 0.809,-0.627 0.843,-0.595C0.878,-0.562 0.904,-0.525 0.922,-0.483C0.94,-0.441 0.948,-0.397 0.948,-0.35C0.948,-0.303 0.94,-0.258 0.922,-0.215C0.904,-0.173 0.878,-0.136 0.843,-0.104C0.808,-0.072 0.766,-0.046 0.715,-0.028C0.665,-0.009 0.607,-0 0.542,-0L0.175,-0ZM0.325,-0.109L0.309,-0.135L0.537,-0.135C0.582,-0.135 0.62,-0.141 0.652,-0.153C0.684,-0.164 0.71,-0.18 0.731,-0.2C0.751,-0.221 0.767,-0.243 0.777,-0.269C0.786,-0.295 0.791,-0.322 0.791,-0.35C0.791,-0.378 0.786,-0.405 0.777,-0.43C0.767,-0.455 0.751,-0.478 0.731,-0.499C0.71,-0.519 0.684,-0.535 0.652,-0.547C0.62,-0.559 0.582,-0.565 0.537,-0.565L0.306,-0.565L0.325,-0.589L0.325,-0.109Z" style="fill:rgb(94,167,162);fill-rule:nonzero;"/>
                </g>
                <g transform="matrix(12,0,0,12,832.482,481.691)">
                    <path d="M0.562,0.01C0.497,0.01 0.438,0.001 0.385,-0.018C0.332,-0.036 0.286,-0.062 0.247,-0.095C0.208,-0.128 0.178,-0.166 0.157,-0.21C0.135,-0.254 0.125,-0.301 0.125,-0.352C0.125,-0.403 0.136,-0.45 0.157,-0.494C0.178,-0.538 0.208,-0.576 0.247,-0.609C0.286,-0.642 0.332,-0.668 0.385,-0.686C0.438,-0.705 0.497,-0.714 0.561,-0.714C0.625,-0.714 0.683,-0.705 0.736,-0.686C0.789,-0.668 0.835,-0.642 0.874,-0.609C0.913,-0.576 0.944,-0.538 0.965,-0.494C0.987,-0.45 0.997,-0.403 0.997,-0.352C0.997,-0.301 0.987,-0.254 0.965,-0.21C0.944,-0.166 0.913,-0.128 0.874,-0.095C0.835,-0.062 0.789,-0.036 0.736,-0.018C0.683,0.001 0.625,0.01 0.562,0.01ZM0.561,-0.132C0.603,-0.132 0.641,-0.138 0.675,-0.149C0.71,-0.16 0.74,-0.175 0.765,-0.195C0.79,-0.215 0.81,-0.239 0.824,-0.265C0.838,-0.292 0.845,-0.321 0.845,-0.352C0.845,-0.383 0.838,-0.412 0.824,-0.439C0.81,-0.465 0.79,-0.489 0.765,-0.509C0.74,-0.528 0.71,-0.544 0.675,-0.555C0.641,-0.566 0.603,-0.572 0.561,-0.572C0.52,-0.572 0.481,-0.566 0.447,-0.555C0.412,-0.544 0.382,-0.528 0.357,-0.509C0.331,-0.489 0.312,-0.465 0.298,-0.439C0.284,-0.412 0.278,-0.383 0.278,-0.352C0.278,-0.321 0.284,-0.292 0.298,-0.265C0.312,-0.239 0.331,-0.215 0.357,-0.195C0.382,-0.175 0.412,-0.16 0.447,-0.149C0.481,-0.138 0.52,-0.132 0.561,-0.132Z" style="fill:rgb(94,167,162);fill-rule:nonzero;"/>
                </g>
                <g transform="matrix(12,0,0,12,845.946,481.691)">
                    <path d="M0.548,0.01C0.489,0.01 0.434,0.001 0.383,-0.016C0.331,-0.033 0.286,-0.057 0.248,-0.089C0.209,-0.121 0.179,-0.159 0.157,-0.204C0.136,-0.248 0.125,-0.298 0.125,-0.352C0.125,-0.405 0.136,-0.453 0.158,-0.497C0.18,-0.541 0.211,-0.579 0.249,-0.611C0.288,-0.643 0.333,-0.668 0.384,-0.685C0.435,-0.703 0.489,-0.711 0.547,-0.711C0.592,-0.711 0.635,-0.706 0.676,-0.696C0.717,-0.685 0.755,-0.672 0.789,-0.655C0.824,-0.638 0.852,-0.62 0.875,-0.6L0.789,-0.48C0.769,-0.497 0.746,-0.512 0.721,-0.526C0.696,-0.54 0.669,-0.551 0.638,-0.559C0.608,-0.567 0.574,-0.572 0.536,-0.572C0.505,-0.572 0.474,-0.567 0.443,-0.557C0.413,-0.547 0.385,-0.533 0.36,-0.514C0.335,-0.495 0.315,-0.472 0.301,-0.444C0.286,-0.417 0.278,-0.386 0.278,-0.351C0.278,-0.314 0.286,-0.282 0.302,-0.254C0.317,-0.226 0.338,-0.203 0.365,-0.184C0.391,-0.166 0.421,-0.152 0.455,-0.142C0.488,-0.133 0.522,-0.128 0.558,-0.128C0.597,-0.128 0.631,-0.133 0.661,-0.144C0.691,-0.154 0.718,-0.166 0.741,-0.181C0.765,-0.196 0.785,-0.21 0.803,-0.223L0.875,-0.104C0.855,-0.089 0.829,-0.072 0.795,-0.054C0.762,-0.036 0.725,-0.021 0.683,-0.009C0.641,0.004 0.596,0.01 0.548,0.01Z" style="fill:rgb(94,167,162);fill-rule:nonzero;"/>
                </g>
                <g transform="matrix(12,0,0,12,857.838,481.691)">
                    <path d="M0.484,0.01C0.43,0.01 0.38,0.005 0.334,-0.005C0.288,-0.015 0.247,-0.03 0.21,-0.048C0.172,-0.066 0.138,-0.088 0.108,-0.114L0.182,-0.235C0.234,-0.194 0.285,-0.165 0.337,-0.146C0.389,-0.127 0.441,-0.118 0.493,-0.118C0.519,-0.118 0.546,-0.121 0.572,-0.127C0.599,-0.132 0.621,-0.141 0.639,-0.154C0.656,-0.167 0.665,-0.184 0.665,-0.206C0.665,-0.219 0.661,-0.23 0.652,-0.239C0.643,-0.247 0.632,-0.254 0.616,-0.259C0.601,-0.265 0.584,-0.269 0.565,-0.272C0.547,-0.276 0.527,-0.278 0.507,-0.28C0.487,-0.282 0.468,-0.284 0.449,-0.285C0.403,-0.29 0.362,-0.298 0.324,-0.309C0.287,-0.319 0.255,-0.333 0.228,-0.35C0.202,-0.367 0.181,-0.387 0.167,-0.411C0.153,-0.436 0.146,-0.463 0.146,-0.495C0.146,-0.53 0.154,-0.561 0.171,-0.588C0.188,-0.615 0.212,-0.638 0.243,-0.657C0.273,-0.675 0.309,-0.69 0.349,-0.699C0.39,-0.709 0.433,-0.714 0.48,-0.714C0.529,-0.714 0.573,-0.709 0.613,-0.7C0.653,-0.691 0.688,-0.679 0.719,-0.662C0.75,-0.646 0.776,-0.627 0.796,-0.606L0.717,-0.501C0.697,-0.519 0.674,-0.534 0.648,-0.547C0.621,-0.559 0.593,-0.569 0.564,-0.575C0.535,-0.582 0.505,-0.585 0.475,-0.585C0.443,-0.585 0.414,-0.582 0.389,-0.576C0.363,-0.571 0.343,-0.562 0.329,-0.551C0.314,-0.54 0.307,-0.525 0.307,-0.508C0.307,-0.493 0.312,-0.48 0.324,-0.47C0.335,-0.46 0.35,-0.452 0.369,-0.446C0.387,-0.44 0.409,-0.435 0.432,-0.431C0.456,-0.428 0.48,-0.424 0.505,-0.421C0.545,-0.417 0.584,-0.412 0.622,-0.405C0.661,-0.398 0.695,-0.388 0.726,-0.375C0.756,-0.362 0.78,-0.343 0.799,-0.319C0.817,-0.294 0.826,-0.262 0.826,-0.222C0.826,-0.174 0.811,-0.133 0.782,-0.098C0.753,-0.063 0.713,-0.037 0.661,-0.018C0.61,0.001 0.551,0.01 0.484,0.01Z" style="fill:rgb(94,167,162);fill-rule:nonzero;"/>
                </g>
                <g transform="matrix(12,0,0,12,869.166,481.691)">
                </g>
            </g>
        </g>
    </g>
</svg>
